<?xml version="1.0" encoding="UTF-8"?>
<svg id="Layer_2" data-name="Layer 2" xmlns="http://www.w3.org/2000/svg" xmlns:xlink="http://www.w3.org/1999/xlink" viewBox="0 0 48 48">
  <defs>
    <style>
      .cls-1 {
        fill: url(#linear-gradient);
        opacity: .81;
        stroke-width: 0px;
      }
    </style>
    <linearGradient id="linear-gradient" x1="4.47" y1="24" x2="43.53" y2="24" gradientUnits="userSpaceOnUse">
      <stop offset="0" stop-color="#c198c6"/>
      <stop offset=".13" stop-color="#b791c2"/>
      <stop offset=".28" stop-color="#b48fc1"/>
      <stop offset=".67" stop-color="#9c82bc"/>
      <stop offset=".89" stop-color="#927cb9"/>
      <stop offset="1" stop-color="#766fb3"/>
    </linearGradient>
  </defs>
  <path class="cls-1" d="M43.53,24.1v17.3c0,.06-.04.1-.1.1h-23.23c-1.16,0-2.26-.51-3.02-1.38l-11.73-13.5c-1.3-1.51-1.3-3.74,0-5.25l11.73-13.5c.76-.87,1.86-1.37,3.02-1.37h22.61c.06,0,.1.04.1.1v5.41s-.01.05-.03.07l-17.39,16.19s-.1.04-.14,0l-3.71-3.98s-.04-.1,0-.14l12.7-11.83c.07-.06.02-.17-.07-.17h-13.28s-.06.01-.08.03l-10.15,11.76s-.03.09,0,.13l10.15,11.75s.05.03.08.03h16.78c.06,0,.1-.04.1-.1v-11.65c0-.06.04-.1.1-.1h5.45c.06,0,.1.04.1.1Z"/>
</svg>